<svg xmlns="http://www.w3.org/2000/svg" xmlns:xlink="http://www.w3.org/1999/xlink" version="1.1" width="379.3094" height="97.54348" viewBox="969.32812,989.02701,379.3094,97.54348"><defs id="element-172"><linearGradient x1="1345.63101" y1="1085.04761" x2="1301.48255" y2="978.07605" gradientUnits="userSpaceOnUse" id="color-1"><stop offset="0" stop-color="#29ffeb" id="element-173"/><stop offset="1" stop-color="#532edd" id="element-174"/></linearGradient></defs><g fill="none" fill-rule="nonzero" stroke="none" stroke-width="none" stroke-linecap="round" stroke-linejoin="round" stroke-miterlimit="10" stroke-dasharray="" stroke-dashoffset="0" font-family="none" font-weight="none" font-size="none" text-anchor="none" id="element-175"><path d="M1014.61001,994.02701v44.0656" id="Path 1" fill="#5b5b5b" stroke="#ffffff" stroke-width="10"/><path d="M974.32812,1038.09262c0,-11.08443 9.0174,-20.07012 20.14094,-20.07012c11.12354,0 20.14094,8.98569 20.14094,20.07012c0,11.08443 -9.0174,20.07012 -20.14094,20.07012c-11.12354,0 -20.14094,-8.98569 -20.14094,-20.07012z" id="element-176" fill-opacity="0" fill="#5b5b5b" stroke="#ffffff" stroke-width="10"/><path d="M1031.53749,1038.0926c0,-11.08443 9.0174,-20.07012 20.14094,-20.07012c11.12354,0 20.14094,8.98569 20.14094,20.07012c0,11.08443 -9.0174,20.07012 -20.14094,20.07012c-11.12354,0 -20.14094,-8.98569 -20.14094,-20.07012z" id="element-177" fill-opacity="0" fill="#5b5b5b" stroke="#ffffff" stroke-width="10"/><path d="M1121.16492,1023.39583c-13.03811,-12.19635 -33.58428,-2.22474 -33.83565,13.75784c-0.25137,15.98257 17.45626,28.77329 34.13917,15.40318" id="element-178" fill-opacity="0" fill="#0a837f" stroke="#ffffff" stroke-width="10"/><path d="M1142.23353,1019.86276c0,0 -0.13854,16.79413 -0.03963,20.95698c0.2097,8.82564 7.2622,17.09022 16.73568,17.23816c9.73554,0.15205 18.11345,-7.28311 18.31137,-16.70269c0.08551,-4.06987 0.17089,-21.36066 0.17089,-21.36066" id="element-179" fill-opacity="0" fill="#0a837f" stroke="#ffffff" stroke-width="10"/><path d="M1233.79079,997.07476c-4.0365,-2.52111 -9.09906,-0.33351 -9.2132,3.38979c-0.07098,3.66405 -0.39486,35.08353 -0.38957,58.25879" id="element-180" fill-opacity="0" fill="#ff3d00" stroke="#ffffff" stroke-width="10"/><path d="M1199.37877,1019.56657v38.78984" id="element-181" fill-opacity="0" fill="#000000" stroke="#ffffff" stroke-width="10"/><path d="M1231.74495,1021.83608h-5.76977" id="element-182" fill="#000000" stroke="#ffffff" stroke-width="10"/><path d="M1247.44526,1021.56272l18.83583,36.13075" id="element-183" fill-opacity="0" fill="#000000" stroke="#ffffff" stroke-width="10"/><path d="M1285.26987,1021.83608l-31.39757,59.73441" id="element-184" fill-opacity="0" fill="#000000" stroke="#ffffff" stroke-width="10"/><path d="M1192.78804,1004.53168c0,-3.63996 2.95077,-6.59073 6.59073,-6.59073c3.63996,0 6.59073,2.95077 6.59073,6.59073c0,3.63996 -2.95077,6.59073 -6.59073,6.59073c-3.63996,0 -6.59073,-2.95077 -6.59073,-6.59073z" id="element-185" fill="#ffffff" stroke="#ffffff" stroke-width="0"/><g fill="url(#color-1)" stroke="#32f0f0" stroke-width="0" id="element-186"><g id="Group 1"><path d="M1303.91542,1012.17512c0,-12.60285 10.01139,-22.81949 22.36105,-22.81949c12.34967,0 22.36105,10.21664 22.36105,22.81949c0,12.60285 -10.01139,22.81949 -22.36105,22.81949c-12.34967,0 -22.36105,-10.21664 -22.36105,-22.81949z" id="Path 1 1 1 1"/><path d="M1292.11985,1053.32167c0,-6.64807 5.28106,-12.0374 11.79557,-12.0374c6.51451,0 11.79557,5.38933 11.79557,12.0374c0,6.64807 -5.28106,12.0374 -11.79557,12.0374c-6.51451,0 -11.79557,-5.38933 -11.79557,-12.0374z" id="element-187"/></g></g></g></svg>