<svg xmlns="http://www.w3.org/2000/svg" xmlns:xlink="http://www.w3.org/1999/xlink" version="1.1" width="355.51834" height="97.54348" viewBox="985.35465,626.38422,355.51834,97.54348"><defs id="element-21"><linearGradient x1="1331.34019" y1="720.73944" x2="1286.50696" y2="629.25386" gradientUnits="userSpaceOnUse" id="color-1"><stop offset="0" stop-color="#29ffeb" id="element-22"/><stop offset="1" stop-color="#532edd" id="element-23"/></linearGradient></defs><g fill="none" fill-rule="nonzero" stroke="none" stroke-width="none" stroke-linecap="round" stroke-linejoin="round" stroke-miterlimit="10" stroke-dasharray="" stroke-dashoffset="0" font-family="none" font-weight="none" font-size="none" text-anchor="none" id="element-24"><path d="M1030.63654,631.38422v44.0656" id="Path 1" fill="#5b5b5b" stroke="#000000" stroke-width="10"/><path d="M990.35465,675.44983c0,-11.08443 9.0174,-20.07012 20.14094,-20.07012c11.12354,0 20.14094,8.98569 20.14094,20.07012c0,11.08443 -9.0174,20.07012 -20.14094,20.07012c-11.12354,0 -20.14094,-8.98569 -20.14094,-20.07012z" id="element-25" fill-opacity="0" fill="#5b5b5b" stroke="#000000" stroke-width="10"/><path d="M1047.56402,675.44981c0,-11.08443 9.0174,-20.07012 20.14094,-20.07012c11.12354,0 20.14094,8.98569 20.14094,20.07012c0,11.08443 -9.0174,20.07012 -20.14094,20.07012c-11.12354,0 -20.14094,-8.98569 -20.14094,-20.07012z" id="element-26" fill-opacity="0" fill="#5b5b5b" stroke="#000000" stroke-width="10"/><path d="M1137.19145,660.75304c-13.03811,-12.19635 -33.58428,-2.22474 -33.83565,13.75784c-0.25137,15.98257 17.45626,28.77329 34.13917,15.40318" id="element-27" fill-opacity="0" fill="#0a837f" stroke="#000000" stroke-width="10"/><path d="M1158.26006,657.21997c0,0 -0.13854,16.79413 -0.03963,20.95698c0.2097,8.82564 7.2622,17.09022 16.73568,17.23816c9.73554,0.15205 18.11345,-7.28311 18.31137,-16.70269c0.08551,-4.06987 0.17089,-21.36066 0.17089,-21.36066" id="element-28" fill-opacity="0" fill="#0a837f" stroke="#000000" stroke-width="10"/><path d="M1226.22128,634.43197c-4.0365,-2.52111 -9.09906,-0.33351 -9.2132,3.38979c-0.07098,3.66405 -0.39486,35.08353 -0.38957,58.25879" id="element-29" fill-opacity="0" fill="#ff3d00" stroke="#000000" stroke-width="10"/><path d="M1224.17544,659.19329h-5.76977" id="element-30" fill="#000000" stroke="#000000" stroke-width="10"/><path d="M1239.87575,658.91993l18.83583,36.13075" id="element-31" fill-opacity="0" fill="#000000" stroke="#000000" stroke-width="10"/><path d="M1277.70036,659.19329l-31.39757,59.73441" id="element-32" fill-opacity="0" fill="#000000" stroke="#000000" stroke-width="10"/><g fill="url(#color-1)" stroke="#32f0f0" stroke-width="0" id="element-33"><g id="Group 1"><path d="M1296.15089,654.20371c0,-12.60285 10.01139,-22.81949 22.36105,-22.81949c12.34967,0 22.36105,10.21664 22.36105,22.81949c0,12.60285 -10.01139,22.81949 -22.36105,22.81949c-12.34967,0 -22.36105,-10.21664 -22.36105,-22.81949z" id="Path 1 1 1 1 1"/><path d="M1284.35532,695.35026c0,-6.64807 5.28106,-12.0374 11.79557,-12.0374c6.51451,0 11.79557,5.38933 11.79557,12.0374c0,6.64807 -5.28106,12.0374 -11.79557,12.0374c-6.51451,0 -11.79557,-5.38933 -11.79557,-12.0374z" id="element-34"/></g></g></g></svg>