<svg xmlns="http://www.w3.org/2000/svg" xmlns:xlink="http://www.w3.org/1999/xlink" version="1.1" width="384.21304" height="100.9743" viewBox="961.75861,857.8086,384.21304,100.9743"><g fill="none" fill-rule="nonzero" stroke="#ffffff" stroke-width="none" stroke-linecap="round" stroke-linejoin="round" stroke-miterlimit="10" stroke-dasharray="" stroke-dashoffset="0" font-family="none" font-weight="none" font-size="none" text-anchor="none" id="element-128"><g id="Group 1" fill="#ffffff" stroke-width="0"><path d="M1288.80072,921.95636c0,-6.66695 5.3421,-12.07159 11.93191,-12.07159c6.5898,0 11.93191,5.40465 11.93191,12.07159c0,6.66695 -5.3421,12.07159 -11.93191,12.07159c-6.5898,0 -11.93191,-5.40465 -11.93191,-12.07159z" id="Path 1 1"/><path d="M1300.73263,880.69291c0,-12.63865 10.12709,-22.88431 22.61951,-22.88431c12.4924,0 22.61951,10.24565 22.61951,22.88431c0,12.63865 -10.12709,22.88431 -22.61951,22.88431c-12.4924,0 -22.61951,-10.24565 -22.61951,-22.88431z" id="element-129"/></g><path d="M1007.0405,866.23942v44.0656" id="Path 1" fill="#5b5b5b" stroke-width="10"/><path d="M966.75861,910.30503c0,-11.08443 9.0174,-20.07012 20.14094,-20.07012c11.12354,0 20.14094,8.98569 20.14094,20.07012c0,11.08443 -9.0174,20.07012 -20.14094,20.07012c-11.12354,0 -20.14094,-8.98569 -20.14094,-20.07012z" id="element-130" fill-opacity="0" fill="#5b5b5b" stroke-width="10"/><path d="M1023.96798,910.30501c0,-11.08443 9.0174,-20.07012 20.14094,-20.07012c11.12354,0 20.14094,8.98569 20.14094,20.07012c0,11.08443 -9.0174,20.07012 -20.14094,20.07012c-11.12354,0 -20.14094,-8.98569 -20.14094,-20.07012z" id="element-131" fill-opacity="0" fill="#5b5b5b" stroke-width="10"/><path d="M1113.59541,895.60823c-13.03811,-12.19635 -33.58428,-2.22474 -33.83565,13.75784c-0.25137,15.98257 17.45626,28.77329 34.13917,15.40318" id="element-132" fill-opacity="0" fill="#0a837f" stroke-width="10"/><path d="M1134.66402,892.07517c0,0 -0.13854,16.79413 -0.03963,20.95698c0.2097,8.82564 7.2622,17.09022 16.73568,17.23816c9.73554,0.15205 18.11345,-7.28311 18.31137,-16.70269c0.08551,-4.06987 0.17089,-21.36066 0.17089,-21.36066" id="element-133" fill-opacity="0" fill="#0a837f" stroke-width="10"/><path d="M1226.22128,869.28717c-4.0365,-2.52111 -9.09906,-0.33351 -9.2132,3.38979c-0.07098,3.66405 -0.39486,35.08353 -0.38957,58.25879" id="element-134" fill-opacity="0" fill="#ff3d00" stroke-width="10"/><path d="M1191.80926,891.77897v38.78984" id="element-135" fill-opacity="0" fill="#000000" stroke-width="10"/><path d="M1224.17544,894.04849h-5.76977" id="element-136" fill="#000000" stroke-width="10"/><path d="M1239.87575,893.77513l18.83583,36.13075" id="element-137" fill-opacity="0" fill="#000000" stroke-width="10"/><path d="M1277.70036,894.04849l-31.39757,59.73441" id="element-138" fill-opacity="0" fill="#000000" stroke-width="10"/><path d="M1185.21853,876.74409c0,-3.63996 2.95077,-6.59073 6.59073,-6.59073c3.63996,0 6.59073,2.95077 6.59073,6.59073c0,3.63996 -2.95077,6.59073 -6.59073,6.59073c-3.63996,0 -6.59073,-2.95077 -6.59073,-6.59073z" id="element-139" fill="#ffffff" stroke-width="0"/></g></svg>