<svg xmlns="http://www.w3.org/2000/svg" xmlns:xlink="http://www.w3.org/1999/xlink" version="1.1" width="384.21304" height="100.9743" viewBox="967.24112,502.59569,384.21304,100.9743"><g fill="none" fill-rule="nonzero" stroke="#000000" stroke-width="none" stroke-linecap="round" stroke-linejoin="round" stroke-miterlimit="10" stroke-dasharray="" stroke-dashoffset="0" font-family="none" font-weight="none" font-size="none" text-anchor="none" id="element-99"><g id="Group 1" fill="#000000" stroke-width="0"><path d="M1294.28323,566.74345c0,-6.66695 5.3421,-12.07159 11.93191,-12.07159c6.5898,0 11.93191,5.40465 11.93191,12.07159c0,6.66695 -5.3421,12.07159 -11.93191,12.07159c-6.5898,0 -11.93191,-5.40465 -11.93191,-12.07159z" id="Path 1"/><path d="M1306.21514,525.48c0,-12.63865 10.12709,-22.88431 22.61951,-22.88431c12.4924,0 22.61951,10.24565 22.61951,22.88431c0,12.63865 -10.12709,22.88431 -22.61951,22.88431c-12.4924,0 -22.61951,-10.24565 -22.61951,-22.88431z" id="element-100"/></g><path d="M1012.52301,511.02651v44.0656" id="element-101" fill="#5b5b5b" stroke-width="10"/><path d="M972.24112,555.09212c0,-11.08443 9.0174,-20.07012 20.14094,-20.07012c11.12354,0 20.14094,8.98569 20.14094,20.07012c0,11.08443 -9.0174,20.07012 -20.14094,20.07012c-11.12354,0 -20.14094,-8.98569 -20.14094,-20.07012z" id="element-102" fill-opacity="0" fill="#5b5b5b" stroke-width="10"/><path d="M1029.45049,555.0921c0,-11.08443 9.0174,-20.07012 20.14094,-20.07012c11.12354,0 20.14094,8.98569 20.14094,20.07012c0,11.08443 -9.0174,20.07012 -20.14094,20.07012c-11.12354,0 -20.14094,-8.98569 -20.14094,-20.07012z" id="element-103" fill-opacity="0" fill="#5b5b5b" stroke-width="10"/><path d="M1119.07792,540.39532c-13.03811,-12.19635 -33.58428,-2.22474 -33.83565,13.75784c-0.25137,15.98257 17.45626,28.77329 34.13917,15.40318" id="element-104" fill-opacity="0" fill="#0a837f" stroke-width="10"/><path d="M1140.14653,536.86226c0,0 -0.13854,16.79413 -0.03963,20.95698c0.2097,8.82564 7.2622,17.09022 16.73568,17.23816c9.73554,0.15205 18.11345,-7.28311 18.31137,-16.70269c0.08551,-4.06987 0.17089,-21.36066 0.17089,-21.36066" id="element-105" fill-opacity="0" fill="#0a837f" stroke-width="10"/><path d="M1231.70379,514.07426c-4.0365,-2.52111 -9.09906,-0.33351 -9.2132,3.38979c-0.07098,3.66405 -0.39486,35.08353 -0.38957,58.25879" id="element-106" fill-opacity="0" fill="#ff3d00" stroke-width="10"/><path d="M1197.29177,536.56606v38.78984" id="element-107" fill-opacity="0" fill="#000000" stroke-width="10"/><path d="M1229.65795,538.83558h-5.76977" id="element-108" fill="#000000" stroke-width="10"/><path d="M1245.35826,538.56222l18.83583,36.13075" id="element-109" fill-opacity="0" fill="#000000" stroke-width="10"/><path d="M1283.18287,538.83558l-31.39757,59.73441" id="element-110" fill-opacity="0" fill="#000000" stroke-width="10"/><path d="M1190.70104,521.53118c0,-3.63996 2.95077,-6.59073 6.59073,-6.59073c3.63996,0 6.59073,2.95077 6.59073,6.59073c0,3.63996 -2.95077,6.59073 -6.59073,6.59073c-3.63996,0 -6.59073,-2.95077 -6.59073,-6.59073z" id="element-111" fill="#000000" stroke-width="0"/></g></svg>