<svg xmlns="http://www.w3.org/2000/svg" xmlns:xlink="http://www.w3.org/1999/xlink" version="1.1" width="379.11439" height="97.54348" viewBox="974.81063,633.8141,379.11439,97.54348"><defs id="element-156"><linearGradient x1="1344.39221" y1="728.16932" x2="1299.55898" y2="636.68374" gradientUnits="userSpaceOnUse" id="color-1"><stop offset="0" stop-color="#29ffeb" id="element-157"/><stop offset="1" stop-color="#532edd" id="element-158"/></linearGradient></defs><g fill="none" fill-rule="nonzero" stroke="none" stroke-width="none" stroke-linecap="round" stroke-linejoin="round" stroke-miterlimit="10" stroke-dasharray="" stroke-dashoffset="0" font-family="none" font-weight="none" font-size="none" text-anchor="none" id="element-159"><path d="M1020.09252,638.8141v44.0656" id="Path 1" fill="#5b5b5b" stroke="#000000" stroke-width="10"/><path d="M979.81063,682.87971c0,-11.08443 9.0174,-20.07012 20.14094,-20.07012c11.12354,0 20.14094,8.98569 20.14094,20.07012c0,11.08443 -9.0174,20.07012 -20.14094,20.07012c-11.12354,0 -20.14094,-8.98569 -20.14094,-20.07012z" id="element-160" fill-opacity="0" fill="#5b5b5b" stroke="#000000" stroke-width="10"/><path d="M1037.02,682.87969c0,-11.08443 9.0174,-20.07012 20.14094,-20.07012c11.12354,0 20.14094,8.98569 20.14094,20.07012c0,11.08443 -9.0174,20.07012 -20.14094,20.07012c-11.12354,0 -20.14094,-8.98569 -20.14094,-20.07012z" id="element-161" fill-opacity="0" fill="#5b5b5b" stroke="#000000" stroke-width="10"/><path d="M1126.64743,668.18292c-13.03811,-12.19635 -33.58428,-2.22474 -33.83565,13.75784c-0.25137,15.98257 17.45626,28.77329 34.13917,15.40318" id="element-162" fill-opacity="0" fill="#0a837f" stroke="#000000" stroke-width="10"/><path d="M1147.71604,664.64985c0,0 -0.13854,16.79413 -0.03963,20.95698c0.2097,8.82564 7.2622,17.09022 16.73568,17.23816c9.73554,0.15205 18.11345,-7.28311 18.31137,-16.70269c0.08551,-4.06987 0.17089,-21.36066 0.17089,-21.36066" id="element-163" fill-opacity="0" fill="#0a837f" stroke="#000000" stroke-width="10"/><path d="M1239.2733,641.86185c-4.0365,-2.52111 -9.09906,-0.33351 -9.2132,3.38979c-0.07098,3.66405 -0.39486,35.08353 -0.38957,58.25879" id="element-164" fill-opacity="0" fill="#ff3d00" stroke="#000000" stroke-width="10"/><path d="M1204.86128,664.35366v38.78984" id="element-165" fill-opacity="0" fill="#000000" stroke="#000000" stroke-width="10"/><path d="M1237.22746,666.62317h-5.76977" id="element-166" fill="#000000" stroke="#000000" stroke-width="10"/><path d="M1252.92777,666.34981l18.83583,36.13075" id="element-167" fill-opacity="0" fill="#000000" stroke="#000000" stroke-width="10"/><path d="M1290.75238,666.62317l-31.39757,59.73441" id="element-168" fill-opacity="0" fill="#000000" stroke="#000000" stroke-width="10"/><path d="M1198.27055,649.31877c0,-3.63996 2.95077,-6.59073 6.59073,-6.59073c3.63996,0 6.59073,2.95077 6.59073,6.59073c0,3.63996 -2.95077,6.59073 -6.59073,6.59073c-3.63996,0 -6.59073,-2.95077 -6.59073,-6.59073z" id="element-169" fill="#000000" stroke="#000000" stroke-width="0"/><g fill="url(#color-1)" stroke="#32f0f0" stroke-width="0" id="element-170"><g id="Group 1"><path d="M1309.20292,661.63359c0,-12.60285 10.01139,-22.81949 22.36105,-22.81949c12.34967,0 22.36105,10.21664 22.36105,22.81949c0,12.60285 -10.01139,22.81949 -22.36105,22.81949c-12.34967,0 -22.36105,-10.21664 -22.36105,-22.81949z" id="Path 1 1 1 1 1"/><path d="M1297.40735,702.78014c0,-6.64807 5.28106,-12.0374 11.79557,-12.0374c6.51451,0 11.79557,5.38933 11.79557,12.0374c0,6.64807 -5.28106,12.0374 -11.79557,12.0374c-6.51451,0 -11.79557,-5.38933 -11.79557,-12.0374z" id="element-171"/></g></g></g></svg>